<svg width="16" height="16" viewBox="0 0 16 16" fill="none" xmlns="http://www.w3.org/2000/svg">
<path d="M7.45467e-05 4.84375V5.02732C7.45467e-05 7.85814 -0.000391396 10.689 0.0010065 13.5198C0.0010065 13.6591 0.00193845 13.8003 0.0252366 13.9368C0.232125 15.1682 1.20413 15.9919 2.46083 15.9942C4.69839 15.9979 6.93642 15.9951 9.17444 15.9951H9.36269C9.33007 15.8642 9.29792 15.7645 9.28208 15.6625C9.15347 14.842 9.03745 14.0197 8.89859 13.2011C8.83056 12.8023 8.87343 12.4375 9.0477 12.0685C9.85615 10.3582 10.6511 8.64086 11.4516 6.9268C11.9851 5.78441 13.1491 5.35857 14.2921 5.89017C14.8583 6.15294 15.4207 6.42363 15.9789 6.68826V4.84375H7.45467e-05ZM6.47092 13.7616C5.86097 13.7649 5.25149 13.7625 4.64154 13.7625C4.026 13.7621 3.41047 13.7625 2.79493 13.7621C2.5708 13.7621 2.40165 13.661 2.29728 13.4672C2.19616 13.2794 2.20641 13.0851 2.32104 12.9043C2.43287 12.7282 2.60342 12.6476 2.80797 12.6476C4.03299 12.6458 5.25848 12.6439 6.48396 12.6481C6.82691 12.6495 7.06549 12.8932 7.06269 13.2132C7.0599 13.5342 6.82086 13.7597 6.47092 13.7616ZM8.11437 10.7742C8.04727 10.7891 7.97598 10.7882 7.90702 10.7882C7.06456 10.7891 6.22256 10.7887 5.38056 10.7887C4.52692 10.7887 3.67327 10.7905 2.81962 10.7877C2.41843 10.7863 2.1477 10.4425 2.25115 10.0754C2.31964 9.83218 2.53771 9.67377 2.81729 9.67284C3.50832 9.67097 4.19981 9.67237 4.89083 9.67237C5.91875 9.67237 6.94667 9.67097 7.97458 9.6733C8.28212 9.67377 8.52023 9.88296 8.55238 10.1686C8.5836 10.4486 8.39535 10.7127 8.11437 10.7742ZM8.54073 7.37128C8.48668 7.5991 8.34176 7.74819 8.10738 7.79571C8.03423 7.81062 7.95781 7.81388 7.88279 7.81388C7.05197 7.81528 6.22163 7.81481 5.39128 7.81481C4.54369 7.81481 3.69564 7.81621 2.84805 7.81388C2.47062 7.81249 2.22365 7.57348 2.23437 7.23057C2.24323 6.9487 2.45571 6.72507 2.73715 6.70224C2.78328 6.69851 2.82987 6.69851 2.87647 6.69851C4.55441 6.69851 6.23281 6.69525 7.91121 6.7041C8.05752 6.70457 8.22387 6.75302 8.34596 6.83269C8.52861 6.95196 8.59199 7.15416 8.54073 7.37128Z" fill="#2580D5"/>
<path d="M15.99 2.42836C15.9798 2.19215 15.9555 1.95034 15.8898 1.72485C15.5828 0.666314 14.6545 0.00100388 13.5036 0.000537979C9.83555 -0.000393828 6.16748 7.20755e-05 2.49895 0.000537979C2.42952 0.000537979 2.35962 0.00100387 2.28973 0.00379929C1.19099 0.0461965 0.206404 0.880629 0.0512381 1.97038C-0.0247141 2.50104 0.013029 3.04848 0.000913938 3.58799C-1.79903e-05 3.6262 0.0102332 3.66487 0.0158248 3.70866H15.9863C15.9891 3.65415 15.9937 3.59917 15.9942 3.5442C15.9947 3.17194 16.0058 2.79968 15.99 2.42836ZM3.15596 2.59795C2.85168 2.59655 2.60099 2.34683 2.60006 2.04446C2.5996 1.73696 2.86613 1.47559 3.17133 1.48444C3.47607 1.49283 3.71698 1.74395 3.71372 2.05098C3.71045 2.35941 3.46629 2.59935 3.15596 2.59795ZM5.02587 2.59795C4.716 2.60028 4.47044 2.3608 4.46671 2.05284C4.46252 1.73836 4.71367 1.48164 5.02354 1.48397C5.32222 1.4863 5.57897 1.74395 5.5799 2.04259C5.58083 2.34496 5.33108 2.59562 5.02587 2.59795ZM6.88646 2.59748C6.57986 2.59981 6.32777 2.35661 6.32311 2.05331C6.31845 1.74255 6.57427 1.48258 6.8832 1.48444C7.18422 1.4863 7.4377 1.74069 7.43863 2.04166C7.43956 2.34589 7.19167 2.59515 6.88646 2.59748Z" fill="#2580D5"/>
<path d="M15.0097 10.7391C14.9054 10.9627 14.8061 11.177 14.7064 11.3909C14.2726 12.3217 13.8369 13.2521 13.4064 14.1844C13.3281 14.3549 13.2162 14.4821 13.055 14.579C12.3435 15.0067 11.6357 15.441 10.9256 15.871C10.4806 16.1408 10.0729 15.9502 9.99317 15.4354C9.86364 14.5977 9.73317 13.76 9.61341 12.9209C9.59617 12.8007 9.60736 12.6577 9.65721 12.5486C10.1917 11.3829 10.7369 10.2224 11.2792 9.06042C11.2839 9.05063 11.2937 9.04271 11.316 9.01709C12.5462 9.59062 13.7703 10.1613 15.0097 10.7391Z" fill="#2580D5"/>
<path d="M15.9341 8.71439C15.8158 9.05729 15.6429 9.38156 15.4877 9.73005C14.2432 9.15 13.0167 8.57788 11.7708 7.99689C11.9241 7.67402 12.0541 7.36979 12.2097 7.0786C12.5172 6.50414 13.2045 6.24556 13.8065 6.49575C14.3256 6.71147 14.8363 6.94954 15.3354 7.20719C15.8708 7.48393 16.1317 8.14179 15.9341 8.71439Z" fill="#2580D5"/>
<path d="M15.9934 13.5525C15.9864 14.7955 15.163 15.7776 13.9343 15.9626C13.513 16.0259 13.0764 15.9877 12.6463 15.9943C12.5075 15.9966 12.3686 15.9947 12.2293 15.9947C12.2256 15.9821 12.2214 15.9696 12.2177 15.957C12.6128 15.7166 13.0033 15.4683 13.404 15.2376C13.7246 15.0536 13.9454 14.7974 14.0997 14.4624C14.6887 13.1811 15.2884 11.9046 15.8843 10.6266C15.9076 10.5758 15.9346 10.5264 15.9803 10.436C15.9873 10.5208 15.9938 10.5632 15.9938 10.6052C15.9948 11.5877 15.9989 12.5699 15.9934 13.5525Z" fill="#2580D5"/>
</svg>
